<svg xmlns="http://www.w3.org/2000/svg" viewBox="0 0 950.89 133.52"><defs><style>.cls-1{fill:#1d3240;}</style></defs><g id="Layer_2" data-name="Layer 2"><g id="art"><path class="cls-1" d="M96.3,24.68H61V130.9H35.16V24.68H0V0H96.3Z"/><path class="cls-1" d="M135.57,111.64c9.35,0,16.83-3.93,21-9.35L176,113.51c-8.79,12.71-22.82,20-40.77,20C103.79,133.52,84,112,84,84.15s20-49.37,49.37-49.37c27.68,0,47.31,21.88,47.31,49.37a55.85,55.85,0,0,1-.93,9.91h-70.5C112.57,106.4,122.86,111.64,135.57,111.64Zm21-36.28c-3-13.46-13.09-18.89-23.19-18.89-12.9,0-21.69,6.92-24.5,18.89Z"/><path class="cls-1" d="M188.12,84.15c0-27.86,20.95-49.37,49.37-49.37,18.32,0,34.22,9.72,41.89,24.12L258.62,71.06c-3.74-7.67-11.78-12.53-21.32-12.53-14.4,0-25.06,10.66-25.06,25.62,0,14.77,10.66,25.43,25.06,25.43,9.73,0,17.77-4.67,21.51-12.34l20.94,12c-8,14.58-23.94,24.31-42.26,24.31C209.07,133.52,188.12,112,188.12,84.15Z"/><path class="cls-1" d="M376.05,73.49V130.9H351.93V76.48c0-12.71-7.67-19.26-18.51-19.26-11.78,0-20.57,6.92-20.57,23.19V130.9H288.73V0h24.12V47.87c5.61-8.41,15.33-13.09,27.86-13.09C360.53,34.78,376.05,48.62,376.05,73.49Z"/><path class="cls-1" d="M470.3,107.34H418.13l-7.85,23.56H382.41L428.23,0h32l46,130.9h-28Zm-8-24.13L444.31,29.73,426.36,83.21Z"/><path class="cls-1" d="M583.63,103.6c0,20.19-17.58,29.92-37.59,29.92-18.7,0-32.54-7.86-39.27-22.26l20.94-11.78c2.62,7.67,9,12.16,18.33,12.16,7.67,0,12.9-2.62,12.9-8,0-13.65-48.24-6.18-48.24-39.09,0-19.07,16.27-29.73,35.53-29.73,15.14,0,28.23,6.92,35.53,19.82L561.19,65.82a15.82,15.82,0,0,0-15-9.53c-6,0-10.85,2.61-10.85,7.66C535.38,77.79,583.63,69.19,583.63,103.6Z"/><path class="cls-1" d="M589.24,84.15c0-27.86,20.94-49.37,49.37-49.37,18.32,0,34.22,9.72,41.88,24.12L659.74,71.06C656,63.39,648,58.53,638.42,58.53c-14.4,0-25.06,10.66-25.06,25.62,0,14.77,10.66,25.43,25.06,25.43,9.72,0,17.76-4.67,21.5-12.34l21,12c-8,14.58-23.94,24.31-42.26,24.31C610.18,133.52,589.24,112,589.24,84.15Z"/><path class="cls-1" d="M735.1,111.64c9.35,0,16.83-3.93,20.94-9.35l19.45,11.22c-8.79,12.71-22.82,20-40.77,20-31.41,0-51.23-21.51-51.23-49.37s20-49.37,49.36-49.37c27.68,0,47.31,21.88,47.31,49.37a55.85,55.85,0,0,1-.93,9.91h-70.5C712.1,106.4,722.38,111.64,735.1,111.64ZM756,75.36c-3-13.46-13.09-18.89-23.19-18.89-12.9,0-21.69,6.92-24.49,18.89Z"/><path class="cls-1" d="M880.58,73.49V130.9H856.46V76.48c0-12.71-7.67-19.26-18.51-19.26-11.78,0-20.57,6.92-20.57,23.19V130.9H793.25V37.4h24.13V47.87c5.61-8.41,15.33-13.09,27.86-13.09C865.06,34.78,880.58,48.62,880.58,73.49Z"/><path class="cls-1" d="M929.76,60.59V99.48c0,10.1,7.3,10.29,21.13,9.54V130.9c-33.84,3.74-45.25-6.17-45.25-31.42V60.59H889.37V37.4h16.27V18.51l24.12-7.29V37.4h21.13V60.59Z"/></g></g></svg>